<svg xmlns="http://www.w3.org/2000/svg" version="1.1" xmlns:xlink="http://www.w3.org/1999/xlink" width="512" height="512"><svg xmlns="http://www.w3.org/2000/svg" xmlns:xlink="http://www.w3.org/1999/xlink" width="512" zoomAndPan="magnify" viewBox="0 0 384 383.999986" height="512" preserveAspectRatio="xMidYMid meet" version="1.2"><defs><clipPath id="SvgjsClipPath1030"><path d="M 14 99 L 370 99 L 370 258 L 14 258 Z M 14 99 "></path></clipPath><clipPath id="SvgjsClipPath1029"><path d="M 191.996094 -43.078125 L 413.144531 178.070312 L 191.996094 399.21875 L -29.152344 178.070312 Z M 191.996094 -43.078125 "></path></clipPath><clipPath id="SvgjsClipPath1028"><path d="M 191.996094 -43.078125 L 413.144531 178.070312 L 191.996094 399.21875 L -29.152344 178.070312 Z M 191.996094 -43.078125 "></path></clipPath><clipPath id="SvgjsClipPath1027"><path d="M 103 99 L 370 99 L 370 258 L 103 258 Z M 103 99 "></path></clipPath><clipPath id="SvgjsClipPath1026"><path d="M 264.726562 29.722656 L 413.21875 178.214844 L 251.996094 339.433594 L 103.503906 190.941406 Z M 264.726562 29.722656 "></path></clipPath><clipPath id="SvgjsClipPath1025"><path d="M 191.996094 -43.007812 L 413.144531 178.140625 L 191.996094 399.289062 L -29.152344 178.140625 Z M 191.996094 -43.007812 "></path></clipPath></defs><g id="SvgjsG1024"><g clip-rule="nonzero" clip-path="url(#ced098e8e6)"><g clip-rule="nonzero" clip-path="url(#9eac5ff904)"><g clip-rule="nonzero" clip-path="url(#e9b6c3b8bf)"><path style=" stroke:none;fill-rule:nonzero;fill:#151f28;fill-opacity:1;" d="M 290.6875 257.054688 L 211.75 257.039062 C 168.15625 257.054688 132.808594 221.703125 132.820312 178.113281 C 132.808594 171.257812 133.980469 164.71875 135.601562 158.378906 L 172.285156 158.378906 C 174.035156 158.375 175.617188 158.945312 177.238281 159.382812 C 174.171875 164.984375 172.285156 171.296875 172.285156 178.113281 C 172.277344 199.882812 190 217.574219 211.75 217.574219 L 290.675781 217.574219 C 312.453125 217.574219 330.152344 199.875 330.148438 178.105469 C 330.152344 156.347656 312.453125 138.648438 290.683594 138.640625 L 262.597656 138.65625 C 255.648438 122.835938 244.570312 109.371094 230.875 99.175781 L 290.683594 99.175781 C 334.28125 99.183594 369.617188 134.519531 369.625 178.117188 C 369.617188 221.703125 334.273438 257.046875 290.6875 257.054688 Z M 121.4375 217.582031 L 93.34375 217.589844 C 71.589844 217.582031 53.878906 199.875 53.875 178.121094 C 53.878906 156.351562 71.582031 138.648438 93.351562 138.640625 L 172.285156 138.648438 C 194.0625 138.648438 211.753906 156.34375 211.75 178.113281 C 211.75 184.914062 209.859375 191.230469 206.816406 196.835938 C 208.449219 197.273438 210.003906 197.84375 211.75 197.84375 L 248.425781 197.851562 C 250.074219 191.515625 251.21875 184.972656 251.210938 178.113281 C 251.21875 134.527344 215.871094 99.179688 172.277344 99.179688 L 93.351562 99.179688 C 49.753906 99.1875 14.417969 134.519531 14.410156 178.121094 C 14.417969 221.707031 49.757812 257.046875 93.34375 257.054688 L 153.167969 257.054688 C 139.457031 246.859375 128.386719 233.390625 121.4375 217.582031 Z M 121.4375 217.582031 "></path></g></g></g><g clip-rule="nonzero" clip-path="url(#dc81b51204)"><g clip-rule="nonzero" clip-path="url(#34a32e5c13)"><g clip-rule="nonzero" clip-path="url(#7d58779718)"><path style=" stroke:none;fill-rule:nonzero;fill:#c02440;fill-opacity:1;" d="M 290.691406 257.125 L 211.75 257.113281 C 168.15625 257.125 132.808594 221.777344 132.824219 178.183594 C 132.808594 171.328125 133.980469 164.789062 135.601562 158.453125 L 172.289062 158.453125 C 174.039062 158.445312 175.621094 159.019531 177.242188 159.453125 C 174.175781 165.054688 172.285156 171.371094 172.289062 178.183594 C 172.28125 199.953125 190.003906 217.648438 211.75 217.648438 L 290.679688 217.648438 C 312.453125 217.648438 330.15625 199.945312 330.148438 178.175781 C 330.15625 156.421875 312.453125 138.71875 290.683594 138.714844 L 262.601562 138.726562 C 255.648438 122.90625 244.570312 109.441406 230.875 99.25 L 290.683594 99.25 C 334.285156 99.257812 369.617188 134.589844 369.625 178.191406 C 369.617188 221.777344 334.277344 257.117188 290.691406 257.125 Z M 121.4375 217.65625 L 93.347656 217.660156 C 71.589844 217.65625 53.882812 199.945312 53.875 178.191406 C 53.882812 156.421875 71.582031 138.722656 93.351562 138.714844 L 172.285156 138.722656 C 194.0625 138.722656 211.757812 156.414062 211.75 178.183594 C 211.75 184.984375 209.863281 191.300781 206.816406 196.910156 C 208.453125 197.34375 210.007812 197.917969 211.75 197.917969 L 248.425781 197.925781 C 250.078125 191.585938 251.222656 185.046875 251.214844 178.183594 C 251.21875 134.601562 215.871094 99.25 172.28125 99.25 L 93.351562 99.25 C 49.753906 99.257812 14.417969 134.59375 14.414062 178.191406 C 14.417969 221.777344 49.761719 257.117188 93.347656 257.125 L 153.167969 257.125 C 139.460938 246.933594 128.386719 233.460938 121.4375 217.65625 Z M 121.4375 217.65625 "></path></g></g></g></g></svg><style>@media (prefers-color-scheme: light) { :root { filter: none; } }
@media (prefers-color-scheme: dark) { :root { filter: none; } }
</style></svg>