<svg xmlns="http://www.w3.org/2000/svg" xmlns:xlink="http://www.w3.org/1999/xlink" width="1080" zoomAndPan="magnify" viewBox="0 0 810 299.999988" height="400" preserveAspectRatio="xMidYMid meet" version="1.2"><defs><clipPath id="2c8e8a69bf"><path d="M 5 103 L 224 103 L 224 201 L 5 201 Z M 5 103 "/></clipPath><clipPath id="1b09f5c6e5"><path d="M 114.289062 16.125 L 250.050781 151.890625 L 114.289062 287.652344 L -21.476562 151.890625 Z M 114.289062 16.125 "/></clipPath><clipPath id="32209ea908"><path d="M 114.289062 16.125 L 250.050781 151.890625 L 114.289062 287.652344 L -21.476562 151.890625 Z M 114.289062 16.125 "/></clipPath><clipPath id="db005b3b90"><rect x="0" width="642" y="0" height="186"/></clipPath></defs><g id="da226f1018"><g clip-rule="nonzero" clip-path="url(#2c8e8a69bf)"><g clip-rule="nonzero" clip-path="url(#1b09f5c6e5)"><g clip-rule="nonzero" clip-path="url(#32209ea908)"><path style=" stroke:none;fill-rule:nonzero;fill:#c02440;fill-opacity:1;" d="M 174.902344 200.457031 L 126.417969 200.449219 C 99.644531 200.457031 77.9375 178.746094 77.945312 151.972656 C 77.9375 147.765625 78.65625 143.746094 79.652344 139.855469 L 102.183594 139.855469 C 103.257812 139.851562 104.230469 140.203125 105.222656 140.46875 C 103.339844 143.910156 102.183594 147.789062 102.183594 151.972656 C 102.179688 165.34375 113.0625 176.210938 126.417969 176.210938 L 174.894531 176.210938 C 188.269531 176.210938 199.140625 165.339844 199.136719 151.96875 C 199.140625 138.609375 188.269531 127.738281 174.898438 127.730469 L 157.648438 127.742188 C 153.382812 118.023438 146.578125 109.753906 138.164062 103.496094 L 174.898438 103.496094 C 201.675781 103.5 223.378906 125.199219 223.382812 151.976562 C 223.378906 178.746094 201.671875 200.453125 174.902344 200.457031 Z M 70.953125 176.214844 L 53.699219 176.21875 C 40.335938 176.214844 29.460938 165.339844 29.457031 151.980469 C 29.460938 138.609375 40.332031 127.738281 53.703125 127.734375 L 102.183594 127.738281 C 115.554688 127.738281 126.421875 138.605469 126.417969 151.976562 C 126.417969 156.152344 125.261719 160.03125 123.390625 163.472656 C 124.394531 163.742188 125.347656 164.09375 126.417969 164.09375 L 148.945312 164.097656 C 149.957031 160.207031 150.660156 156.1875 150.65625 151.976562 C 150.660156 125.207031 128.949219 103.496094 102.175781 103.496094 L 53.703125 103.496094 C 26.925781 103.5 5.222656 125.203125 5.21875 151.980469 C 5.222656 178.75 26.929688 200.453125 53.699219 200.457031 L 90.441406 200.457031 C 82.019531 194.199219 75.21875 185.925781 70.953125 176.214844 Z M 70.953125 176.214844 "/></g></g></g><g transform="matrix(1,0,0,1,163,57)"><g clip-path="url(#db005b3b90)"><g style="fill:#ffffff;fill-opacity:1;"><g transform="translate(0.5322, 138.311569)"><path style="stroke:none" d="M 35.328125 -93.671875 L 35.328125 -40.890625 C 35.328125 -36.566406 36.273438 -33.144531 38.171875 -30.625 C 40.066406 -28.113281 43.132812 -26.859375 47.375 -26.859375 C 51.601562 -26.859375 54.734375 -28.113281 56.765625 -30.625 C 58.796875 -33.144531 59.8125 -36.566406 59.8125 -40.890625 L 59.8125 -93.671875 L 89.046875 -93.671875 L 89.046875 -40.890625 C 89.046875 -31.972656 87.191406 -24.359375 83.484375 -18.046875 C 79.785156 -11.742188 74.710938 -7.003906 68.265625 -3.828125 C 61.828125 -0.660156 54.640625 0.921875 46.703125 0.921875 C 38.765625 0.921875 31.726562 -0.660156 25.59375 -3.828125 C 19.46875 -7.003906 14.6875 -11.722656 11.25 -17.984375 C 7.8125 -24.253906 6.09375 -31.890625 6.09375 -40.890625 L 6.09375 -93.671875 Z M 35.328125 -93.671875 "/></g></g><g style="fill:#ffffff;fill-opacity:1;"><g transform="translate(95.66291, 138.311569)"><path style="stroke:none" d="M 80.1875 -93.671875 L 80.1875 -70.390625 L 55.3125 -70.390625 L 55.3125 0 L 25.9375 0 L 25.9375 -70.390625 L 1.328125 -70.390625 L 1.328125 -93.671875 Z M 80.1875 -93.671875 "/></g></g><g style="fill:#ffffff;fill-opacity:1;"><g transform="translate(177.165713, 138.311569)"><path style="stroke:none" d="M 53.71875 0 L 36.125 -33.609375 L 35.984375 -33.609375 L 35.984375 0 L 6.609375 0 L 6.609375 -93.671875 L 50.28125 -93.671875 C 57.863281 -93.671875 64.34375 -92.328125 69.71875 -89.640625 C 75.101562 -86.953125 79.140625 -83.289062 81.828125 -78.65625 C 84.523438 -74.03125 85.875 -68.804688 85.875 -62.984375 C 85.875 -56.722656 84.128906 -51.164062 80.640625 -46.3125 C 77.160156 -41.457031 72.15625 -37.972656 65.625 -35.859375 L 86 0 Z M 35.984375 -53.1875 L 47.625 -53.1875 C 50.445312 -53.1875 52.5625 -53.828125 53.96875 -55.109375 C 55.382812 -56.390625 56.09375 -58.394531 56.09375 -61.125 C 56.09375 -63.59375 55.363281 -65.53125 53.90625 -66.9375 C 52.457031 -68.351562 50.363281 -69.0625 47.625 -69.0625 L 35.984375 -69.0625 Z M 35.984375 -53.1875 "/></g></g><g style="fill:#ffffff;fill-opacity:1;"><g transform="translate(265.813248, 138.311569)"><path style="stroke:none" d="M 35.984375 -70.265625 L 35.984375 -58.75 L 65.09375 -58.75 L 65.09375 -36.65625 L 35.984375 -36.65625 L 35.984375 -23.421875 L 69.0625 -23.421875 L 69.0625 0 L 6.609375 0 L 6.609375 -93.671875 L 69.0625 -93.671875 L 69.0625 -70.265625 Z M 35.984375 -70.265625 "/></g></g><g style="fill:#ffffff;fill-opacity:1;"><g transform="translate(339.377452, 138.311569)"><path style="stroke:none" d="M 66.6875 -14.15625 L 35.453125 -14.15625 L 30.828125 0 L 0 0 L 34.265625 -93.671875 L 68.140625 -93.671875 L 102.28125 0 L 71.3125 0 Z M 59.546875 -36.25 L 51.078125 -62.3125 L 42.609375 -36.25 Z M 59.546875 -36.25 "/></g></g><g style="fill:#ffffff;fill-opacity:1;"><g transform="translate(441.652895, 138.311569)"><path style="stroke:none" d="M 3.96875 -46.96875 C 3.96875 -56.226562 5.84375 -64.472656 9.59375 -71.703125 C 13.34375 -78.941406 18.703125 -84.566406 25.671875 -88.578125 C 32.640625 -92.597656 40.84375 -94.609375 50.28125 -94.609375 C 58.394531 -94.609375 65.648438 -93.082031 72.046875 -90.03125 C 78.441406 -86.988281 83.644531 -82.6875 87.65625 -77.125 C 91.664062 -71.570312 94.332031 -65.09375 95.65625 -57.6875 L 64.703125 -57.6875 C 63.285156 -60.769531 61.273438 -63.171875 58.671875 -64.890625 C 56.078125 -66.617188 53.101562 -67.484375 49.75 -67.484375 C 44.8125 -67.484375 40.90625 -65.628906 38.03125 -61.921875 C 35.164062 -58.210938 33.734375 -53.226562 33.734375 -46.96875 C 33.734375 -40.707031 35.164062 -35.722656 38.03125 -32.015625 C 40.90625 -28.316406 44.8125 -26.46875 49.75 -26.46875 C 53.101562 -26.46875 56.078125 -27.328125 58.671875 -29.046875 C 61.273438 -30.765625 63.285156 -33.164062 64.703125 -36.25 L 95.65625 -36.25 C 94.332031 -28.84375 91.664062 -22.359375 87.65625 -16.796875 C 83.644531 -11.242188 78.441406 -6.945312 72.046875 -3.90625 C 65.648438 -0.863281 58.394531 0.65625 50.28125 0.65625 C 40.84375 0.65625 32.640625 -1.347656 25.671875 -5.359375 C 18.703125 -9.367188 13.34375 -14.988281 9.59375 -22.21875 C 5.84375 -29.457031 3.96875 -37.707031 3.96875 -46.96875 Z M 3.96875 -46.96875 "/></g></g><g style="fill:#ffffff;fill-opacity:1;"><g transform="translate(541.282157, 138.311569)"><path style="stroke:none" d="M 93.28125 -93.671875 L 93.28125 0 L 63.90625 0 L 63.90625 -36.515625 L 35.984375 -36.515625 L 35.984375 0 L 6.609375 0 L 6.609375 -93.671875 L 35.984375 -93.671875 L 35.984375 -59.9375 L 63.90625 -59.9375 L 63.90625 -93.671875 Z M 93.28125 -93.671875 "/></g></g></g></g></g></svg>